<svg style="position: absolute; width: 0; height: 0; overflow: hidden;" version="1.1"
     xmlns="http://www.w3.org/2000/svg">
    <defs>
        <symbol id="logo" viewBox="0 0 429.86515948126566 64.8">
            <g transform="matrix(1.1749347448349,0,0,1.1749347448349,0.14099259570234007,3.579632803010721)"
               fill="#163172">
                <path d="M15.12 40 l-2.04 -8.36 l-7.76 0 l-2.04 8.36 l-3.4 0 l8 -30 l2.76 0 l7.96 30 l-3.48 0 z M9.32 15.8 l-3.16 12.44 l6.08 0 z M20.891000000000002 40 l0 -30 l3 0 l0 30 l-3 0 z M41.622 40 l-6 -11.8 l-4.36 0 l0 11.8 l-3.32 0 l0 -30 l6.96 0 c1.5733 0 2.92 0.24668 4.04 0.74 s2.04 1.16 2.76 2 s1.2533 1.8 1.6 2.88 s0.52 2.2067 0.52 3.38 c0 0.93332 -0.11332 1.84 -0.34 2.72 s-0.55336 1.6933 -0.98004 2.44 s-0.92668 1.42 -1.5 2.02 s-1.1933 1.0733 -1.86 1.42 l6.68 12.4 l-4.2 0 z M34.662 13.32 l-3.4 0.000039062 l0 11.4 l3.64 0 c1.0933 0 1.9933 -0.16668 2.7 -0.5 s1.26 -0.77332 1.66 -1.32 s0.68 -1.1734 0.84 -1.88 s0.24 -1.4467 0.24 -2.22 s-0.12668 -1.4933 -0.38 -2.16 s-0.62 -1.2467 -1.1 -1.74 s-1.0733 -0.88 -1.78 -1.16 s-1.5134 -0.42 -2.42 -0.42 z M55.073 29.28 l-3.1599 0 l0 10.72 l-3.6 0 l0 -30 l7.32 0 c2.64 0 4.7 0.85332 6.18 2.56 s2.22 4.1068 2.22 7.2 c0 1.3867 -0.21332 2.66 -0.64 3.82 s-1.0334 2.16 -1.82 3 s-1.7334 1.5 -2.84 1.98 s-2.3267 0.72 -3.66 0.72 z M54.913000000000004 13.52 l-3 0.00011719 l0 12.16 l2.6 0 c1.12 0 2.0533 -0.16 2.8 -0.48 s1.3467 -0.75332 1.8 -1.3 s0.78 -1.18 0.98 -1.9 s0.3 -1.4933 0.3 -2.32 c0 -0.90668 -0.07332 -1.7334 -0.22 -2.48 s-0.42 -1.3934 -0.82 -1.94 s-0.96 -0.97336 -1.68 -1.28 s-1.64 -0.46 -2.76 -0.46 z M74.08400000000002 40.36 c-2.5067 0 -4.3932 -0.70668 -5.66 -2.12 s-1.9 -3.48 -1.9 -6.2 l0 -14 c0 -2.7467 0.64 -4.82 1.92 -6.22 s3.32 -2.1 6.12 -2.1 c2.56 0 4.4668 0.70668 5.72 2.12 s1.88 3.4533 1.88 6.12 l0 14.08 c0 2.7467 -0.61332 4.82 -1.84 6.22 s-3.3067 2.1 -6.24 2.1 z M78.72400000000002 17.92 c0 -0.58668 -0.07328 -1.1667 -0.21996 -1.74 s-0.38 -1.0866 -0.7 -1.54 s-0.74668 -0.82 -1.28 -1.1 s-1.2 -0.42 -2 -0.42 c-0.90668 0 -1.6534 0.12 -2.24 0.36 s-1.0534 0.59332 -1.4 1.06 s-0.58668 1.02 -0.72 1.66 s-0.2 1.36 -0.2 2.16 l0 13.48 c0 0.61332 0.06668 1.22 0.2 1.82 s0.35332 1.14 0.66 1.62 s0.72668 0.86668 1.26 1.16 s1.2 0.44 2 0.44 c0.90668 0 1.66 -0.11332 2.26 -0.34 s1.0733 -0.55336 1.42 -0.98004 s0.59336 -0.94668 0.74004 -1.56 s0.22 -1.2933 0.22 -2.04 l0 -14.04 z M99.935 40 l-6 -11.8 l-4.36 0 l0 11.8 l-3.32 0 l0 -30 l6.96 0 c1.5733 0 2.92 0.24668 4.04 0.74 s2.04 1.16 2.76 2 s1.2533 1.8 1.6 2.88 s0.52 2.2067 0.52 3.38 c0 0.93332 -0.11332 1.84 -0.34 2.72 s-0.55336 1.6933 -0.98004 2.44 s-0.92668 1.42 -1.5 2.02 s-1.1933 1.0733 -1.86 1.42 l6.68 12.4 l-4.2 0 z M92.97500000000001 13.32 l-3.4 0.000039062 l0 11.4 l3.64 0 c1.0933 0 1.9933 -0.16668 2.7 -0.5 s1.26 -0.77332 1.66 -1.32 s0.68 -1.1734 0.84 -1.88 s0.24 -1.4467 0.24 -2.22 s-0.12668 -1.4933 -0.38 -2.16 s-0.62 -1.2467 -1.1 -1.74 s-1.0733 -0.88 -1.78 -1.16 s-1.5134 -0.42 -2.42 -0.42 z M113.22600000000001 13.64 l0 26.36 l-3.6 0 l0 -26.36 l-5.88 0 l0 -3.64 l15.36 0 l0 3.64 l-5.88 0 z"></path>
            </g>
            <g transform="matrix(1.4730281829833984,0,0,1.4730281829833984,152.0149138569439,-40.33829472475672)"
               fill="#163172">
                <path d="M94.674,47.862c0,0-0.721-0.769-1.496-0.486  c-2.563,0.935-13.542,5.033-13.542,5.033l0.626-10.328c0,0-2.73-1.425-3.473-0.536c-2.025,2.426-7.823,9.412-7.823,9.412  l-8.448-3.034l33.528-19.116c0,0-3.648-2.033-5.437-1.238c-0.792,0.352-37.188,14.795-37.188,14.795s-4.11-1.521-5.577-1.912  c-1.172-0.312-2.848-0.507-3.812,0.5c-0.154,0.161-0.571,0.685-0.571,0.685s-12.685-4.083-16.978-5.214  c-2.161-0.57-8.871-2.27-10.203-1.816c0,0-0.873,0.237-1.499,0.685c-0.355,0.254-0.995,0.265-1.474,0.303  c-0.542,0.042-2.13,0.308-2.83,0.466c-1.054,0.239-1.637,0.524-2,0.666c-0.364,0.142-0.728,0.484-0.951,0.908  s-0.082,0.926,0.335,1.438c0.664,0.684,1.291,1.496,2.393,2.322c1.838,1.379,6.07,3.566,9.127,4.777  c2.766,1.096,18.521,6.229,21.674,7.097l-1.648,2.966c0,0-4.28-1.323-4.919-1.422c-1.221-0.188-2.335-0.284-3.275,0.081  c-0.556,0.216-1.122,0.74-1.478,1.388c-0.189,0.344-0.871,2.053-0.031,3.421c0.672,1.095,3.391,1.767,4.921,2.021  c0.629,0.104,2.691,0.52,2.691,0.52s-2.686,6.399-3.516,8.559c-0.377,0.98,4.037,0.405,4.037,0.405l12.395-15.304l23.05,3.973  c0,0-2.616,3.872-2.673,3.959c-0.515,0.791,1.411,0.583,1.411,0.583l5.732-4.284c0,0,2.045-0.023,4.031-0.047  c0.546-0.007,1.406-0.313,1.552-1.21c0.115-0.69,0.058-1.419-0.404-1.799C80.811,56.98,94.674,47.862,94.674,47.862z M29.737,57.803  c-0.27,1.008-0.851,1.727-1.298,1.605c-0.447-0.119-0.591-1.033-0.322-2.039c0.271-1.006,0.851-1.725,1.299-1.605  C29.863,55.883,30.007,56.797,29.737,57.803z M23.112,37.802l-9.305-2.129l0.573-0.362l2.121,0.305l6.732,1.657L23.112,37.802z   M40.891,43.234l-16.644-5.176l0.052-0.538l16.779,5.073L40.891,43.234z M43.548,43.427c-0.265,1.026-0.914,1.737-1.447,1.59  c-0.534-0.148-0.751-1.1-0.485-2.125c0.266-1.027,0.913-1.738,1.447-1.591C43.597,41.449,43.814,42.401,43.548,43.427z   M60.541,49.793v-0.599l14.127,5.293l0.136,0.623L60.541,49.793z"></path>
            </g>
            <g transform="matrix(1.199992060661316,0,0,1.199992060661316,302.4428553862915,3.000317380713934)"
               fill="#163172">
                <path d="M10.731 13.719999999999999 l0 9.92 l10.76 0 l0 3.6 l-10.76 0 l0 12.76 l-3.6 0 l0 -30 l14.56 0 l0 3.72 l-10.96 0 z M24.622000000000003 40 l0 -30 l3 0 l0 30 l-3 0 z M44.473 40 l-9.28 -21.52 l0 21.52 l-3.52 0 l0 -30 l3.36 0 l9.36 20.68 l0.2 -20.68 l3.48 0 l0 30 l-3.6 0 z M66.884 33.64 c-0.18668 0.85332 -0.45992 1.6598 -0.81992 2.4198 s-0.83332 1.4333 -1.42 2.02 s-1.3 1.0534 -2.14 1.4 s-1.82 0.52 -2.94 0.52 l-7.32 0 l0 -30 l7.04 0 c1.9733 0 3.66 0.5 5.06 1.5 s2.3 2.6733 2.7 5.02 c0.05332 0.42668 0.10664 1.0734 0.15996 1.94 s0.09332 1.8534 0.12 2.96 s0.04 2.2734 0.04 3.5 s-0.02 2.4067 -0.06 3.54 s-0.09332 2.16 -0.16 3.08 s-0.15336 1.62 -0.26004 2.1 z M58.964000000000006 13.52 l-3.44 0.000078124 l0 22.88 l3.96 0 c1.04 0 1.8933 -0.36668 2.56 -1.1 s1.16 -1.54 1.48 -2.42 c0.10668 -0.29332 0.19336 -0.85332 0.26004 -1.68 s0.12 -1.78 0.16 -2.86 s0.06 -2.22 0.06 -3.42 s-0.01332 -2.3333 -0.04 -3.4 s-0.07336 -2 -0.14004 -2.8 s-0.14 -1.3467 -0.22 -1.64 c-0.16 -0.42668 -0.34 -0.85336 -0.54 -1.28 s-0.47332 -0.81336 -0.82 -1.16 s-0.78 -0.62 -1.3 -0.82 s-1.18 -0.3 -1.98 -0.3 z M70.495 40 l0 -30 l14.72 0 l0 3.76 l-11.36 0 l0 9.24 l11.28 0 l0 3.32 l-11.28 0 l0 9.92 l11.64 0 l0 3.76 l-15 0 z M101.98600000000002 40 l-6 -11.8 l-4.36 0 l0 11.8 l-3.32 0 l0 -30 l6.96 0 c1.5733 0 2.92 0.24668 4.04 0.74 s2.04 1.16 2.76 2 s1.2533 1.8 1.6 2.88 s0.52 2.2067 0.52 3.38 c0 0.93332 -0.11332 1.84 -0.34 2.72 s-0.55336 1.6933 -0.98004 2.44 s-0.92668 1.42 -1.5 2.02 s-1.1933 1.0733 -1.86 1.42 l6.68 12.4 l-4.2 0 z M95.02600000000001 13.32 l-3.4 0.000039062 l0 11.4 l3.64 0 c1.0933 0 1.9933 -0.16668 2.7 -0.5 s1.26 -0.77332 1.66 -1.32 s0.68 -1.1734 0.84 -1.88 s0.24 -1.4467 0.24 -2.22 s-0.12668 -1.4933 -0.38 -2.16 s-0.62 -1.2467 -1.1 -1.74 s-1.0733 -0.88 -1.78 -1.16 s-1.5134 -0.42 -2.42 -0.42 z"></path>
            </g>
        </symbol>
        <symbol id="airport" viewBox="0 0 512 512">
            <path d="M504.021,95.104l-6.037,8.811l5.952-8.875c-17.536-12.011-35.819-13.504-54.293-4.587l-60.459,28.416l-1.792,1.067
				l-37.419-19.563c-15.659-10.432-33.515-15.936-52.011-15.936c-0.021,0-0.021,0-0.021,0l-31.595,0.896
				c-4.523,0.149-8.491,3.136-9.856,7.445s0.149,9.045,3.797,11.755l66.432,49.813l-52.288,27.179
				c-6.421-0.619-25.813-5.376-34.453-7.488c-12.011-2.944-13.867-3.371-15.979-3.371h-21.333c-4.501,0-8.533,2.837-10.048,7.083
				c-1.515,4.245-0.171,8.981,3.328,11.84c18.603,15.189,60.245,46.613,85.867,46.613c4.16,0,7.893-0.832,11.029-2.667
				L504.192,126.08c4.928-3.456,7.829-9.28,7.808-15.531C511.979,104.277,508.971,98.496,504.021,95.104z M282.688,214.763
				c-5.141,1.899-21.909-5.867-41.387-18.453c30.869,7.467,35.883,7.637,40.96,5.163l69.312-36.011
				c3.264-1.707,5.419-4.949,5.717-8.597c0.277-3.648-1.301-7.211-4.245-9.408l-55.552-41.664l0.747-0.021
				c13.973,0,27.776,4.267,40.853,12.907l43.691,22.933c3.307,1.728,7.253,1.6,10.453-0.299l65.6-31.595
				c10.667-5.184,20.117-4.843,29.525,0.597L282.688,214.763z"/>
            <path d="M74.667,128h42.667c5.888,0,10.667-4.779,10.667-10.667s-4.779-10.667-10.667-10.667H74.667
				c-5.888,0-10.667,4.779-10.667,10.667S68.779,128,74.667,128z"/>
            <path d="M160,448h42.667c5.888,0,10.667-4.779,10.667-10.667v-42.667c0-5.888-4.779-10.667-10.667-10.667H160
				c-5.888,0-10.667,4.779-10.667,10.667v42.667C149.333,443.221,154.112,448,160,448z M170.667,405.333H192v21.333h-21.333V405.333
				z"/>
            <path d="M117.333,213.333H74.667C68.779,213.333,64,218.112,64,224v42.667c0,5.888,4.779,10.667,10.667,10.667h42.667
				c5.888,0,10.667-4.779,10.667-10.667V224C128,218.112,123.221,213.333,117.333,213.333z M106.667,256H85.333v-21.333h21.333V256z
				"/>
            <path d="M266.667,448h42.667c5.888,0,10.667-4.779,10.667-10.667v-42.667c0-5.888-4.779-10.667-10.667-10.667h-42.667
				c-5.888,0-10.667,4.779-10.667,10.667v42.667C256,443.221,260.779,448,266.667,448z M277.333,405.333h21.333v21.333h-21.333
				V405.333z"/>
            <path d="M480,341.333h-53.333v-32c0-5.888-4.779-10.667-10.667-10.667H288c-5.888,0-10.667,4.779-10.667,10.667v32H170.667v-160
				c0-5.888-4.779-10.667-10.667-10.667h-6.528l16.64-49.963c0.363-1.088,0.555-2.219,0.555-3.371V74.667
				C170.667,68.779,165.888,64,160,64h-53.333V10.667C106.667,4.779,101.888,0,96,0S85.333,4.779,85.333,10.667V64H32
				c-5.888,0-10.667,4.779-10.667,10.667v42.667c0,1.152,0.192,2.283,0.555,3.371l16.64,49.963H32
				c-5.888,0-10.667,4.779-10.667,10.667v160H10.667C4.779,341.333,0,346.112,0,352v149.333C0,507.221,4.779,512,10.667,512H480
				c5.888,0,10.667-4.779,10.667-10.667V352C490.667,346.112,485.888,341.333,480,341.333z M298.667,320h106.667v21.333H298.667V320
				z M42.667,192.021h10.667c3.435,0,6.656-1.664,8.661-4.437c1.984-2.795,2.539-6.379,1.451-9.621l-20.779-62.357V85.333h106.667
				v30.251l-20.779,62.357c-1.109,3.264-0.555,6.848,1.451,9.621c2.005,2.795,5.227,4.437,8.661,4.437h10.667v149.333H42.667
				V192.021z M426.667,490.667H384v-85.333h42.667V490.667z M469.333,490.667H448v-96c0-5.888-4.779-10.667-10.667-10.667h-64
				c-5.888,0-10.667,4.779-10.667,10.667v96H21.333v-128h448V490.667z"/>
            <path d="M53.333,448H96c5.888,0,10.667-4.779,10.667-10.667v-42.667c0-5.888-4.779-10.667-10.667-10.667H53.333
				c-5.888,0-10.667,4.779-10.667,10.667v42.667C42.667,443.221,47.445,448,53.333,448z M64,405.333h21.333v21.333H64V405.333z"/>
        </symbol>
        <symbol id="info" viewBox="0 0 281.488 281.488">
            <path d="M140.744,0C63.138,0,0,63.138,0,140.744s63.138,140.744,140.744,140.744s140.744-63.138,140.744-140.744
                    S218.351,0,140.744,0z M140.744,263.488C73.063,263.488,18,208.426,18,140.744S73.063,18,140.744,18
	                s122.744,55.063,122.744,122.744S208.425,263.488,140.744,263.488z"/>
            <path d="M163.374,181.765l-16.824,9.849v-71.791c0-3.143-1.64-6.058-4.325-7.69c-2.686-1.632-6.027-1.747-8.818-0.299
		            l-23.981,12.436c-4.413,2.288-6.135,7.72-3.847,12.132c2.289,4.413,7.72,6.136,12.133,3.847l10.838-5.62v72.684
		            c0,3.225,1.726,6.203,4.523,7.808c1.387,0.795,2.932,1.192,4.477,1.192c1.572,0,3.143-0.411,4.546-1.232l30.371-17.778
		            c4.29-2.512,5.732-8.024,3.221-12.314S167.663,179.255,163.374,181.765z"/>
            <circle cx="137.549" cy="86.612" r="12.435"/>
        </symbol>
        <symbol id="phone" viewBox="0 0 420.514 420.514">
            <path d="M293.814,254.728l-37.701,28.083l-7.636,24.527c-55.525-33.273-102.028-79.776-135.301-135.301l24.527-7.636l28.083-37.701
	                L75.978,0L33.567,20.089L0,101.609l0.863,2.632c24.033,73.265,65.555,140.81,120.077,195.332
	                c54.522,54.522,122.067,96.044,195.332,120.077l2.632,0.863l81.521-33.567l20.088-42.41L293.814,254.728z M147.246,126.481
	                l-13.948,18.724L50.681,28.58l20.34-9.634L147.246,126.481z M318.327,404.53c-70.028-23.428-134.565-63.348-186.78-115.563
	                C79.332,236.752,39.412,172.215,15.985,102.186l25.164-61.113l79.908,112.801l-30.221,9.409l4.594,8.095
	                c36.402,64.154,89.554,117.306,153.708,153.708l8.096,4.594l9.408-30.221l112.801,79.907L318.327,404.53z M391.934,369.833
	                l-116.626-82.617l18.724-13.948l107.536,76.225L391.934,369.833z"/>
        </symbol>
        <symbol id="identifier" viewBox="0 0 512 512">
            <path d="M454.613,0H57.387C25.707,0,0,25.707,0,57.387v397.227C0,486.293,25.707,512,57.387,512h397.227
				c31.68,0,57.387-25.707,57.387-57.387V57.387C512,25.707,486.293,0,454.613,0z M490.667,454.613
				c0,19.947-16.107,36.053-36.053,36.053H57.387c-19.947,0-36.053-16.107-36.053-36.053V57.387
				c0-19.947,16.107-36.053,36.053-36.053h397.227c19.947,0,36.053,16.107,36.053,36.053V454.613z"/>
            <rect x="160" y="148.267" width="26.667" height="211.2"/>
            <path d="M350.827,138.667h-26.56v87.467h-0.64c-6.613-12.16-20.8-21.227-40.64-21.227c-33.067,0-61.76,29.013-61.76,80.107
				c0,47.04,25.493,77.013,59.2,77.013c22.08,0,38.4-12.16,45.653-27.093h0.853l1.6,24.533h23.573
				c-0.64-10.027-1.28-25.707-1.28-38.187V138.667z M324.267,298.773c0.107,3.84-0.32,7.573-1.28,11.307
				c-5.333,21.013-20.267,31.04-35.413,31.04c-26.56,0-39.893-25.707-39.893-56.747c0-32.32,14.187-58.24,40.533-58.24
				c18.347,0,31.68,14.08,35.093,31.04c0.64,3.733,0.96,7.467,0.96,11.307V298.773z"/>
        </symbol>
        <symbol id="time" viewBox="0 0 300.988 300.988">
            <path d="M150.494,0.001C67.511,0.001,0,67.512,0,150.495s67.511,150.493,150.494,150.493s150.494-67.511,150.494-150.493
			S233.476,0.001,150.494,0.001z M150.494,285.987C75.782,285.987,15,225.206,15,150.495S75.782,15.001,150.494,15.001
			s135.494,60.782,135.494,135.493S225.205,285.987,150.494,285.987z"/>
            <polygon
                    points="142.994,142.995 83.148,142.995 83.148,157.995 157.994,157.995 157.994,43.883 142.994,43.883"/>
        </symbol>
        <symbol id="plane" viewBox="0 -32 576 576">
            <path d="M480 192H365.71L260.61 8.06A16.014 16.014 0 0 0 246.71 0h-65.5c-10.63 0-18.3 10.17-15.38 20.39L214.86
                    192H112l-43.2-57.6c-3.02-4.03-7.77-6.4-12.8-6.4H16.01C5.6 128-2.04 137.78.49 147.88L32 256 .49 364.12C-2.04
                    374.22 5.6 384 16.01 384H56c5.04 0 9.78-2.37 12.8-6.4L112 320h102.86l-49.03 171.6c-2.92 10.22 4.75 20.4 15.38 20.4h65.5c5.74
                    0 11.04-3.08 13.89-8.06L365.71 320H480c35.35 0 96-28.65 96-64s-60.65-64-96-64z"/>
        </symbol>
        <symbol id="altitude" viewBox="0 0 415.259 415.259">
            <path d="M327.073,323.196L174.091,90.426c-3.1-4.718-7.795-7.423-12.877-7.423c-5.209,0-9.955,2.811-13.023,7.712L2.671,323.26
					c-3.166,5.062-3.535,10.572-1.013,15.127c2.522,4.556,7.392,7.166,13.36,7.166h299.995c6.015,0,10.881-2.633,13.358-7.225
					C330.848,333.736,330.375,328.223,327.073,323.196z M161.304,101.234c1.529,0,2.417,1.472,2.417,1.472l92.72,138.025
					c5.974,10.752,1.974,14.086-9.36,3.086c0,0-33.562-38.944-46.108-50.578c-3.15-2.921-9.553-3.67-13.12-1.275
					c-9.288,6.233-25.457,21.991-34.852,28.063c-3.607,2.332-8.505,0.328-9.525-3.847c-3.373-13.792-6.196-42.208-9.754-55.955
					c-1.076-4.159-5.102-4.926-8.567-2.387c-0.858,0.629-2.687,1.727-3.603,2.268c-1.06,0.625-0.469-0.259-0.469-0.259
					l37.937-57.292C159.018,102.558,159.708,101.234,161.304,101.234z"/>
            <path d="M412.619,290.749L271.834,76.537c-2.854-4.341-7.173-6.831-11.852-6.831c-4.793,0-9.161,2.587-11.983,7.098
					l-29.411,46.999c0,0-1.099,1.681-0.247,3.573c0.951,2.113,3.63,5.949,5.093,7.748c1.142,1.401,2.588-0.974,2.588-0.974
					l32.199-48.845c0,0,0.873-1.301,1.847-1.301c1.109,0,1.947,1.386,1.947,1.386l91.624,135.562
					c2.603,3.782-4.281,3.799-10.285-1.016c-9.071-7.274-27.021-22.074-36.116-29.319c-3.094-2.464-8.74-3.301-12.073-1.174
					c-4.911,3.135-16.602,12.289-21.366,16.683c-2.557,2.357-0.692,4.572-0.692,4.572l64.075,97.496c0,0,1.812,3.129,4.688,3.129
					c14.914,0,59.656,0,59.656,0c5.532,0,10.015-2.424,12.293-6.648C416.095,300.45,415.658,295.374,412.619,290.749z"/>
        </symbol>
        <symbol id="speed_horizontal" viewBox="0 0 362.485 362.485">
            <path d="M187.566,224.456c8.238,0,14.939-6.713,14.939-14.97c0-8.221-6.689-14.91-14.919-14.91l-37.584-27.265l-6.314,6.594
				    l28.937,36.031l0.036,0.486C173.13,218.295,179.679,224.456,187.566,224.456z"/>
            <path d="M181.234,14.661C81.296,14.661,0,95.954,0,195.879c0,34.875,9.944,68.748,28.778,97.943l1.357,2.103h22.542
				l30.555-26.686l-13.195-15.145l-29.805,26.019l-0.97-1.639c-14.679-25.1-22.425-53.671-22.425-82.602
				c0-0.841,0.048-1.64,0.141-2.679l0.117-3.044l36.29-0.043v-20.085H19.032l0.312-1.85c4.753-28.027,16.702-54.385,34.552-76.228
				l1.107-1.354l25.583,25.556l14.241-14.168L68.923,76.062l1.219-1.114c26.679-24.527,59.631-39.284,95.314-42.679l1.727-0.159
				l0.024,41.904h20.071V31.783l1.648,0.081c39.568,1.838,77.099,17.861,105.688,45.132l1.159,1.102l-26.481,26.538l14.22,14.192
				l25.809-25.833l1.104,1.402c16.826,21.386,28.15,46.903,32.715,73.787l0.312,1.843l-35.681,0.027v20.09h37.633l0.138,3.23
				c0.054,0.84,0.108,1.663,0.108,2.504c0,28.816-7.681,57.243-22.206,82.241l-1.032,1.777l-28.085-28.061l-14.177,14.214
				l29.855,29.874h22.35l1.369-2.114c18.819-29.219,28.763-63.086,28.763-97.938C362.485,95.954,281.181,14.661,181.234,14.661z"/>
            <rect x="100.46" y="327.053" width="161.559" height="20.771"/>
        </symbol>
        <symbol id="speed_vertical" viewBox="0 0 485.102 485.102">
            <g transform="translate(0 -540.36)">
                <g>
                    <g>
                        <path d="M483.465,805.461c-6.9-60.3-35.3-116-79.8-156.7c-44.4-40.6-101.8-62.9-161.5-62.9c-59.8,0-117.1,22.3-161.5,62.9
				c-0.1,0.1-0.1,0.1-0.1,0.1c-44.2,41.2-72.2,97-79,157c-6.8,60.7,8.7,121.1,43.9,169.9c1.9,2.7,4.9,4.2,8.1,4.2h377.9
				c3.2,0,6.2-1.5,8.2-4.2C474.865,926.861,490.465,866.361,483.465,805.461z M426.264,959.961h-367.5l0,0
				c-63-91.8-48.2-218.4,35.4-296.4c84.4-77.1,211.6-77.1,295.9,0C474.664,740.861,489.764,867.461,426.264,959.961z"/>
                        <path d="M332.164,663.561c-27.4-15.8-58.5-24.2-90.1-24.2c-31.2,0-62.1,8.4-89.4,24.2c-27.2,15.8-50.1,38.7-66.4,66.2
				c-0.9,1.5-1.4,3.3-1.4,5.1v53c0,5.5,4.5,10,10,10s10-4.5,10-10v-50.2c11.4-18.7,26.3-34.6,43.4-47.2v44.4c0,5.5,4.5,10,10,10
				s10-4.5,10-10v-56.9c19.9-10.6,41.9-16.9,64.5-18.3v53.8c0,5.5,4.5,10,10,10s10-4.5,10-10v-53.8c22.9,1.5,44.8,7.9,64.5,18.4
				v56.7c0,5.5,4.5,10,10,10s10-4.5,10-10v-44c16.7,12.4,31.2,28.2,42.6,46.8v50.2c0,5.5,4.5,10,10,10s10-4.5,10-10v-53
				c0.2-1.7-0.3-3.4-1.2-5C382.464,702.261,359.464,679.361,332.164,663.561z"/>
                        <path d="M242.965,841.961c-1.6,0-3.1,0.1-4.6,0.3l-28.7-58c-2.4-5-8.4-7-13.4-4.5c-5,2.4-7,8.4-4.5,13.4l27.7,56.1
				c-11.2,7.6-18.6,20.6-18.6,35.2c0,23.3,18.5,41.6,42.1,41.6c22.8,0,41.3-18.7,41.3-41.6
				C284.164,861.061,265.664,841.961,242.965,841.961z M242.965,906.061c-12.4,0-22.1-9.5-22.1-21.6c0-12.4,9.9-22.5,22.1-22.5
				c11.5,0,21.3,10.3,21.3,22.5C264.164,896.361,254.664,906.061,242.965,906.061z"/>
                    </g>
                </g>
            </g>
        </symbol>
        <symbol id="runaway" viewBox="0 0 512 512">
            <g>
                <g>
                    <path d="M263.308,147.567c-2.246-2.246-5.233-3.484-8.408-3.484c-3.175,0-6.161,1.237-8.408,3.484
			c-2.969,2.971-2.969,7.784,0.001,10.754c2.273,2.272,5.626,2.804,8.407,1.599c0.964,0.419,1.997,0.628,3.03,0.628
			c1.946,0,3.891-0.742,5.376-2.226C266.277,155.351,266.278,150.537,263.308,147.567z"/>
                </g>
            </g>
            <g>
                <g>
                    <path d="M470.125,0H41.876c-4.199,0-7.604,3.405-7.604,7.604v496.792c0,4.199,3.405,7.604,7.604,7.604h428.248
			c4.199,0,7.604-3.405,7.604-7.604V7.604C477.729,3.405,474.324,0,470.125,0z M79.651,270.02c0,0.006,0,0.012,0,0.019v226.753
			H49.48V15.208h30.172V270.02z M94.857,15.208h322.789v243.123c-11.875-5.323-25.244-11.139-38.817-16.946V225.09
			c0-9.583-7.797-17.38-17.38-17.38h-3.509c-9.583,0-17.379,7.797-17.379,17.38v0.132c-2.349-0.981-4.659-1.945-6.929-2.89v-13.56
			c0-9.583-7.797-17.379-17.38-17.379h-3.509c-8.846,0-16.154,6.648-17.229,15.208c-3.801-1.554-6.712-2.741-8.549-3.489
			l1.062-36.711c0.341-11.799-5.679-26.813-14.312-35.699c-5.658-5.825-12.165-8.903-18.817-8.903
			c-6.652,0-13.159,3.079-18.817,8.904c-8.634,8.888-14.652,23.901-14.312,35.699l1.093,37.8c-1.611,0.657-3.577,1.459-5.875,2.4
			c-1.074-8.559-8.383-15.208-17.229-15.208h-3.509c-9.583,0-17.38,7.796-17.38,17.379v13.56c-2.27,0.945-4.581,1.908-6.929,2.89
			v-0.132c0-9.583-7.796-17.38-17.379-17.38h-3.509c-9.583,0-17.38,7.797-17.38,17.38v16.295
			c-13.574,5.807-26.943,11.622-38.819,16.947V15.208z M381.972,259.285l-96.42-7.174l0.948-32.767
			C303.089,226.12,344.496,243.125,381.972,259.285z M310.575,212.783v-4.011c0-1.177,0.994-2.171,2.171-2.171h3.509
			c1.177,0,2.172,0.994,2.172,2.171v7.251C315.689,214.892,313.062,213.807,310.575,212.783z M355.771,231.601v-6.51
			c0-1.177,0.994-2.172,2.171-2.172h3.509c1.177,0,2.172,0.995,2.172,2.172v9.824C360.991,233.802,358.371,232.696,355.771,231.601z
			 M279.545,348.508l11.108,9.343l-14.705-4.328C277.321,351.994,278.532,350.317,279.545,348.508z M254.901,347.651
			c-7.105,0-12.833-5.564-13.038-12.667l-4.889-169.022c-0.226-7.815,4.174-18.648,10.017-24.663
			c1.902-1.958,4.819-4.292,7.909-4.292c3.09,0,6.007,2.334,7.909,4.292c5.844,6.015,10.244,16.848,10.018,24.663l-4.888,169.022
			C267.734,342.087,262.007,347.651,254.901,347.651z M258.827,364.336v1.283c0,1.177-0.995,2.171-2.172,2.171h-3.509
			c-1.177,0-2.172-0.994-2.172-2.171v-1.283h0.001l3.926-1.156L258.827,364.336z M233.854,353.522l-14.705,4.328l11.109-9.343
			C231.271,350.317,232.482,351.994,233.854,353.522z M223.335,220.437l0.922,31.875l-93.72,6.973
			C166.14,243.932,205.286,227.819,223.335,220.437z M148.886,234.916v-9.825c0-1.177,0.995-2.172,2.172-2.172h3.509
			c1.177,0,2.171,0.995,2.171,2.172v6.511C154.138,232.696,151.518,233.803,148.886,234.916z M194.082,216.023v-7.251
			c0-1.177,0.995-2.171,2.172-2.171h3.509c1.177,0,2.171,0.994,2.171,2.171v4.011C199.446,213.807,196.819,214.892,194.082,216.023z
			 M417.648,496.792H94.859V277.19l129.838-9.661l1.857,64.22l-44.971,37.824c-2.754,2.317-3.507,6.246-1.805,9.417
			c1.351,2.516,3.956,4.008,6.699,4.008c0.713,0,1.436-0.101,2.147-0.31l47.435-13.962c1.471,8.103,8.565,14.271,17.086,14.271
			h3.509c8.52,0,15.614-6.168,17.086-14.271l47.436,13.962c0.713,0.21,1.435,0.31,2.147,0.31c2.744,0,5.347-1.491,6.699-4.008
			c1.702-3.17,0.949-7.1-1.805-9.417l-44.971-37.824l1.863-64.422l132.537,9.862V496.792z M462.521,496.792h-29.664V270.039
			c0-0.006,0-0.012,0-0.019V15.208h29.664V496.792z"/>
                </g>
            </g>
            <g>
                <g>
                    <path d="M254.901,48.232c-4.199,0-7.604,3.405-7.604,7.604v34.03c0,4.199,3.405,7.604,7.604,7.604
			c4.199,0,7.604-3.405,7.604-7.604v-34.03C262.505,51.637,259.101,48.232,254.901,48.232z"/>
                </g>
            </g>
            <g>
                <g>
                    <path d="M254.901,418.222c-4.199,0-7.604,3.405-7.604,7.604v34.03c0,4.199,3.405,7.604,7.604,7.604
			c4.199,0,7.604-3.405,7.604-7.604v-34.03C262.505,421.626,259.101,418.222,254.901,418.222z"/>
                </g>
            </g>
        </symbol>
        <symbol id="take-off" viewBox="0 0 24 24">
            <g>
                <path fill="none" d="M0 0h24v24H0z"/>
                <path d="M10.478 11.632L5.968 4.56l1.931-.518 6.951 6.42 5.262-1.41a1.5 1.5 0 0 1 .776 2.898L5.916 15.96l-.776-2.898.241-.065 2.467 2.445-2.626.704a1 1 0 0 1-1.133-.48L1.466 10.94l1.449-.388 2.466 2.445 5.097-1.366zM4 19h16v2H4v-2z"/>
            </g>
        </symbol>
        <symbol id="connections" viewBox="0 0 511 511">
            <path d="M471.5,168c-12.519,0-22.78,9.84-23.462,22.192l-173.16,47.768C268.406,224.959,254.983,216,239.5,216
	                c-0.606,0-1.208,0.019-1.808,0.046L196.013,43.377C202.608,39.21,207,31.861,207,23.5C207,10.542,196.458,0,183.5,0
	                S160,10.542,160,23.5c0,12.261,9.441,22.354,21.434,23.404l41.679,172.67c-9.56,4.378-17.087,12.453-20.724,22.393L62.673,219.612
	                C60.814,208.499,51.133,200,39.5,200C26.542,200,16,210.542,16,223.5S26.542,247,39.5,247c9.016,0,16.858-5.107,20.798-12.577
	                l139.735,22.357c0.299,9.309,3.83,17.81,9.51,24.421L63.462,465.391C60.974,464.492,58.294,464,55.5,464
	                C42.542,464,32,474.542,32,487.5S42.542,511,55.5,511S79,500.458,79,487.5c0-4.71-1.398-9.097-3.793-12.778l146.081-184.189
	                C226.742,293.38,232.934,295,239.5,295c6.117,0,11.913-1.398,17.086-3.891c0.16,0.29,0.333,0.575,0.535,0.849L356.24,426.06
	                c-2.668,3.812-4.24,8.445-4.24,13.44c0,12.958,10.542,23.5,23.5,23.5s23.5-10.542,23.5-23.5S388.458,416,375.5,416
	                c-2.513,0-4.933,0.401-7.205,1.134l-99.112-134.092c-0.206-0.279-0.433-0.533-0.669-0.775C275.018,275.224,279,265.82,279,255.5
	                c0-1.038-0.053-2.062-0.132-3.08l173.165-47.77C456.262,210.891,463.41,215,471.5,215c12.958,0,23.5-10.542,23.5-23.5
	                S484.458,168,471.5,168z M175,23.5c0-4.687,3.813-8.5,8.5-8.5s8.5,3.813,8.5,8.5s-3.813,8.5-8.5,8.5S175,28.187,175,23.5z
	                M384,439.5c0,4.687-3.813,8.5-8.5,8.5s-8.5-3.813-8.5-8.5s3.813-8.5,8.5-8.5S384,434.813,384,439.5z M39.5,232
	                c-4.687,0-8.5-3.813-8.5-8.5s3.813-8.5,8.5-8.5s8.5,3.813,8.5,8.5S44.187,232,39.5,232z M55.5,496c-4.687,0-8.5-3.813-8.5-8.5
	                s3.813-8.5,8.5-8.5s8.5,3.813,8.5,8.5S60.187,496,55.5,496z M215,255.5c0-13.509,10.991-24.5,24.5-24.5s24.5,10.991,24.5,24.5
	                S253.009,280,239.5,280S215,269.009,215,255.5z M471.5,200c-4.687,0-8.5-3.813-8.5-8.5s3.813-8.5,8.5-8.5s8.5,3.813,8.5,8.5
	                S476.187,200,471.5,200z"/>
        </symbol>
        <symbol id="spinner" viewBox="0 0 24 24">
            <path d="M12 22C17.5228 22 22 17.5228 22 12H19C19 15.866 15.866 19 12 19V22Z"/>
            <path d="M2 12C2 6.47715 6.47715 2 12 2V5C8.13401 5 5 8.13401 5 12H2Z"/>
        </symbol>
        <symbol id="close" viewBox="0 0 24 24">
            <path d="M16.3394 9.32245C16.7434 8.94589 16.7657 8.31312 16.3891 7.90911C16.0126 7.50509 15.3798 7.48283 14.9758 7.85938L12.0497 10.5866L9.32245 7.66048C8.94589 7.25647 8.31312 7.23421 7.90911 7.61076C7.50509 7.98731 7.48283 8.62008 7.85938 9.0241L10.5866 11.9502L7.66048 14.6775C7.25647 15.054 7.23421 15.6868 7.61076 16.0908C7.98731 16.4948 8.62008 16.5171 9.0241 16.1405L11.9502 13.4133L14.6775 16.3394C15.054 16.7434 15.6868 16.7657 16.0908 16.3891C16.4948 16.0126 16.5171 15.3798 16.1405 14.9758L13.4133 12.0497L16.3394 9.32245Z"/>
            <path fill-rule="evenodd" clip-rule="evenodd"
                  d="M1 12C1 5.92487 5.92487 1 12 1C18.0751 1 23 5.92487 23 12C23 18.0751 18.0751 23 12 23C5.92487 23 1 18.0751 1 12ZM12 21C7.02944 21 3 16.9706 3 12C3 7.02944 7.02944 3 12 3C16.9706 3 21 7.02944 21 12C21 16.9706 16.9706 21 12 21Z"/>
        </symbol>
        <symbol id="arrow" viewBox="0 0 483.284 483.284">
            <polygon
                    points="375.784,134.142 241.642,0 107.5,134.142 135.784,162.427 221.888,76.323 221.888,483.284 261.888,483.284 261.888,76.815 347.5,162.426 "/>
        </symbol>
    </defs>
</svg>